<svg xmlns="http://www.w3.org/2000/svg" version="1.1" fill="currentColor" viewBox="-5.0 -10.0 110.0 110.0" stroke="currentColor">
 <path d="m18.75 70.832h10.418v12.5c0 0.80078 0.46094 1.5312 1.1797 1.8789 0.28906 0.13672 0.59766 0.20703 0.90234 0.20703 0.46484 0 0.92578-0.15625 1.3008-0.45703l17.637-14.129h9.1016c1.1484 0 2.082-0.93359 2.082-2.082s-0.93359-2.082-2.082-2.082h-9.832c-0.47266 0-0.93359 0.16406-1.3008 0.45703l-14.824 11.871v-10.246c0-1.1484-0.93359-2.082-2.082-2.082h-12.5c-3.4453 0-6.25-2.8047-6.25-6.25v-35.418c0-3.4453 2.8047-6.25 6.25-6.25h54.168c3.4453 0 6.25 2.8047 6.25 6.25v15c0 1.1484 0.93359 2.082 2.082 2.082s2.082-0.93359 2.082-2.082v-15c0-5.7422-4.6719-10.418-10.418-10.418h-54.164c-5.7422 0-10.418 4.6719-10.418 10.418v35.418c0 5.7422 4.6719 10.418 10.418 10.418z"/>
 <path d="m79.09 47.363c-0.25-0.90234-1.0703-1.5273-2.0078-1.5273s-1.7578 0.625-2.0078 1.5273c-2.1016 7.6055-3.4414 8.9453-11.047 11.047-0.90234 0.25-1.5273 1.0703-1.5273 2.0078s0.625 1.7578 1.5273 2.0078c7.6055 2.1016 8.9453 3.4414 11.047 11.047 0.25 0.90234 1.0703 1.5273 2.0078 1.5273s1.7578-0.625 2.0078-1.5273c2.1016-7.6055 3.4414-8.9453 11.047-11.047 0.90234-0.25 1.5273-1.0703 1.5273-2.0078s-0.625-1.7578-1.5273-2.0078c-7.6055-2.1016-8.9453-3.4414-11.047-11.047zm-2.0078 19.277c-1.4219-2.9844-3.2422-4.8047-6.2266-6.2266 2.9844-1.4219 4.8047-3.2422 6.2266-6.2266 1.4219 2.9844 3.2422 4.8047 6.2266 6.2266-2.9844 1.4219-4.8047 3.2422-6.2266 6.2266z"/>
 <path d="m22.918 31.25h45.832c1.1484 0 2.082-0.93359 2.082-2.082 0-1.1484-0.93359-2.082-2.082-2.082l-45.832-0.003907c-1.1484 0-2.082 0.93359-2.082 2.082 0 1.1484 0.93359 2.082 2.082 2.082z"/>
 <path d="m70.832 41.668c0-1.1484-0.93359-2.082-2.082-2.082l-45.832-0.003907c-1.1484 0-2.082 0.93359-2.082 2.082 0 1.1484 0.93359 2.082 2.082 2.082h45.832c1.1484 0 2.082-0.93359 2.082-2.082z"/>
 <path d="m22.918 52.082c-1.1484 0-2.082 0.93359-2.082 2.082 0 1.1484 0.93359 2.082 2.082 2.082h33.332c1.1484 0 2.082-0.93359 2.082-2.082 0-1.1484-0.93359-2.082-2.082-2.082z"/>
</svg>