<?xml version="1.0" encoding="UTF-8"?>
<svg xmlns="http://www.w3.org/2000/svg" viewBox="0 0 1024 1024">
  <path d="M177.95,209.04h350v98h-123v510h-99v-510h-128v-98Z"/>
  <path d="M666.95,610c20.68-8.29,40.72-18.07,58.35-31.87.9-.73,1.78-1.43,2.65-2.13,37.99-29.5,64.55-72.58,74.5-119.57.17-.83.34-1.63.5-2.43,5.36-24.67,5.66-53.96.5-78.7-.17-.78-.34-1.54-.5-2.3-6.98-33.29-21.44-64.8-43.38-90.92-.87-1.03-1.75-2.05-2.62-3.08-2.24-2.78-4.51-5.44-7-8-44.41-43.96-96.56-63-159-63v98c25.7,2.14,49.1,4.74,70.31,19.95.92.7,1.8,1.37,2.69,2.05,8.07,5.93,14.62,12.53,20.75,20.38.42.55.83,1.08,1.25,1.62,15.22,19.7,21.71,44.57,20.93,69.22-1.3,25.34-11.96,52.55-30.93,70.02-.68.6-1.34,1.18-2,1.76-8.6,8.03-17.36,14.03-28.01,19.07-.68.31-1.33.62-1.99.93-16.62,7.76-34.3,9.59-52.43,9.58-2.02,0-4.04,0-6.05.02-5.34.04-10.68.07-16.02.08-8.73.02-17.45.06-26.18.12-3.07.02-6.14.03-9.2.04-1.93,0-3.85,0-5.78.02q-1.35,0-2.68.01c-4.06,0-7.76-.16-11.65,1.14-4.36,3.18-7.27,5.72-9,11q-1,7.03,7.22,19.01l182.17,265.15c.62,0,2.52-.01,5.05-.02,23.08-.04,94.4.26,107.77.02l-140.2-207.16Z"/>
</svg>
